<svg width="213" height="213" viewBox="0 0 213 213" fill="none" xmlns="http://www.w3.org/2000/svg">
<rect width="213" height="213" rx="50" fill="#3A6FBF"/>
<mask id="mask0" mask-type="alpha" maskUnits="userSpaceOnUse" x="0" y="0" width="213" height="213">
<rect width="213" height="213" rx="50" fill="#3A6FBF"/>
</mask>
<g mask="url(#mask0)">
<path fill-rule="evenodd" clip-rule="evenodd" d="M-54 178V173H-45.4133V188H-37.095V183H-28.5083V208H-20.19V193H-11.6033V198H-3.285V193H5.30167V168H13.8883V213H22.2067V188H30.7933V168H39.1117V213H47.6983V183H56.285V208H64.6033V168H73.19V208H81.5083V178H90.095V178H98.4133V188H107V188H115.587V178H123.905V188H132.492V203H140.81V208H149.397V208H157.715V173H166.302V193H174.888V183H183.207V213H191.793V183H200.112V178H208.698V203H217.285V193H225.603V203H234.19V163H242.508V198H251.095V188H259.413V208H268V213H259.413V213H251.095V213H242.508V213H234.19V213H225.603V213H217.285V213H208.698V213H200.112V213H191.793V213H183.207V213H174.888V213H166.302V213H157.715V213H149.397V213H140.81V213H132.492V213H123.905V213H115.587V213H107V213H98.4133V213H90.095V213H81.5083V213H73.19V213H64.6033V213H56.285V213H47.6983V213H39.1117V213H30.7933V213H22.2067V213H13.8883V213H5.30167V213H-3.285V213H-11.6033V213H-20.19V213H-28.5083V213H-37.095V213H-45.4133V213H-54V213V178Z" fill="#0099FF"/>
</g>
<path d="M156.109 86.4502L112.037 42.3782C107.481 37.8219 100.067 37.8217 95.5102 42.3782C91.4143 46.4739 91.0615 52.7205 94.0862 57.1809L94.0249 57.4877C90.8475 73.3762 83.1119 87.8306 71.6539 99.2883L51.4393 119.503C46.8721 124.07 46.8713 131.462 51.4393 136.03L62.4569 147.047C67.0239 151.615 74.4163 151.615 78.9837 147.047L81.7383 144.293L101.02 163.574C105.587 168.142 112.979 168.142 117.546 163.574C122.103 159.018 122.103 151.604 117.546 147.048L109.283 138.784L112.037 136.03C116.604 131.463 116.605 124.071 112.037 119.503L110.165 117.631C119.374 111.184 129.832 106.696 141 104.462L141.31 104.4C145.87 107.478 152.102 106.983 156.109 102.976H156.109C160.665 98.4205 160.665 91.0068 156.109 86.4502ZM73.4749 141.539C71.9527 143.061 69.488 143.061 67.9658 141.538L56.9481 130.521C55.4256 128.998 55.4256 126.534 56.9481 125.012L76.2292 105.731L92.7559 122.257C90.8695 124.144 75.4078 139.605 73.4749 141.539ZM112.037 152.556C113.556 154.075 113.556 156.546 112.037 158.065C110.518 159.584 108.047 159.584 106.528 158.065L87.2468 138.784L92.7559 133.275L112.037 152.556ZM98.2648 127.766C99.4358 126.595 101.189 124.801 103.955 122.439L106.528 125.012C108.051 126.534 108.051 128.998 106.528 130.521L103.774 133.275L98.2648 127.766ZM98.4303 116.914L81.572 100.056C90.6064 89.624 97.0761 77.3099 100.537 63.932L134.554 97.9487C121.176 101.41 108.862 107.88 98.4303 116.914ZM150.599 97.4674C149.077 98.9896 146.613 98.9896 145.091 97.4674L101.019 53.3959C99.4966 51.8731 99.4966 49.4095 101.019 47.887C102.542 46.3646 105.006 46.3646 106.528 47.887L150.599 91.9583C152.118 93.4771 152.118 95.9483 150.599 97.4674Z" fill="white"/>
<path d="M78.9835 119.503C77.4625 117.982 74.9958 117.982 73.4746 119.503L67.9658 125.012C66.4446 126.533 66.4446 128.999 67.9658 130.52C69.4867 132.042 71.9537 132.042 73.4746 130.52L78.9835 125.012C80.5046 123.49 80.5046 121.024 78.9835 119.503Z" fill="white"/>
<path d="M129.928 34C127.777 34 126.033 35.7441 126.033 37.8954V45.6863C126.033 47.8377 127.777 49.5818 129.928 49.5818C132.079 49.5818 133.824 47.8377 133.824 45.6863V37.8954C133.824 35.7441 132.079 34 129.928 34Z" fill="white"/>
<path d="M161.091 65.163H153.3C151.149 65.163 149.405 66.9071 149.405 69.0584C149.405 71.2098 151.149 72.9539 153.3 72.9539H161.091C163.243 72.9539 164.987 71.2098 164.987 69.0584C164.987 66.9071 163.242 65.163 161.091 65.163Z" fill="white"/>
<path d="M156.055 42.9315C154.534 41.4103 152.067 41.4103 150.546 42.9315L142.755 50.7224C141.234 52.2436 141.234 54.71 142.755 56.2312C144.276 57.7524 146.743 57.7527 148.264 56.2312L156.055 48.4403C157.576 46.9192 157.576 44.453 156.055 42.9315Z" fill="white"/>
</svg>
